<svg width="212" height="224" viewBox="0 0 212 224" fill="none" xmlns="http://www.w3.org/2000/svg">
<path d="M112.483 118.354C112.693 120.723 108.283 122.02 105.997 118.354C103.525 115.116 105.342 107.597 112.483 105.426C119.208 102.857 129.85 107.79 131.942 118.354C134.606 128.512 126.559 142.216 112.483 144.211C98.8437 146.957 81.9423 135.838 80.0517 118.354C77.1859 101.297 91.4926 81.3676 112.483 79.5694C133.066 76.6269 156.174 93.967 157.886 118.354C160.934 142.315 140.417 168.467 112.483 170.067C84.961 173.207 55.6266 149.641 54.107 118.354C50.87 87.4743 77.6099 55.133 112.483 53.7131C146.916 50.3968 182.514 80.1478 183.831 118.354C187.266 156.134 154.279 194.701 112.483 195.924C71.1067 199.437 29.2987 163.464 28.1621 118.354C24.5503 73.672 63.7441 28.8866 112.483 27.8565C160.786 24.1463 208.838 66.3458 209.776 118.354C213.59 169.956 168.145 220.931 112.483 221.781C57.2574 225.671 2.95839 177.282 2.21714 118.354C-1.77753 59.8529 49.8857 2.65255 112.483 2" stroke="#F9F5E9" stroke-width="3" stroke-linecap="round"/>
</svg>
